<svg width="72" height="122" viewBox="0 0 72 122" fill="none" xmlns="http://www.w3.org/2000/svg">
<path d="M42.528 98.5597C29.0221 98.5597 15.9808 100.018 5.4458 102.432L5.90453 103.737C17.4791 101.648 29.1444 100.785 40.9005 101.148C48.8465 101.495 56.7343 102.367 64.5644 103.764L65.9404 99.8649C58.1637 98.9385 50.3595 98.5128 42.528 98.5871" fill="#585E60"/>
<path d="M17.8212 25.6025C48.0276 7.06688 45.204 4.91511 44.0681 3.22755L44.1499 3.16754C46.3346 5.0517 51.8503 13.0362 27.149 28.3986C4.70314 42.3522 3.26135 51.0357 13.2719 60.0031C15.8059 62.2585 16.6142 62.5863 20.7757 65.1094L17.5536 69.2926C12.6656 66.2016 -19.5013 49.2826 17.8102 25.6024" fill="#FFC938"/>
<path d="M39.8245 53.6736C10.2573 35.1215 12.8514 33.3138 13.9708 31.6754L13.8889 31.6154C11.7045 33.4668 6.5599 41.3365 30.8954 56.4424C54.3188 70.9968 51.8503 80.128 43.2161 93.7266C43.2161 93.8193 43.1068 93.8903 43.1123 93.9614C54.9251 85.9225 64.1219 68.9104 39.8356 53.6736" fill="#5D97C9"/>
<path d="M22.8946 58.5723C19.2028 50.3039 20.7102 45.2249 37.782 34.6956C64.1547 18.4428 48.6283 3.46236 44.4339 0.0491375L44.5159 0C49.4311 2.73064 69.6379 20.4742 42.1019 37.7429C29.47 45.6727 21.7478 50.3039 22.8946 58.5723Z" fill="#FFC938"/>
<path d="M46.269 73.4051C31.092 82.7604 25.4396 90.297 29.8851 96.3426C28.5854 88.0304 40.3545 84.2841 52.4513 76.6273C88.5721 53.7553 62.5544 32.997 55.6843 29.5782L55.5695 29.6439C61.4731 33.9037 79.9431 52.5812 46.2854 73.4159" fill="#56B146"/>
<path d="M41.4632 92.2956V92.2082C45.1493 83.9399 35.958 74.4591 18.8862 63.9298C-7.50283 47.6551 9.01212 32.1669 13.2118 28.7591L12.1469 29.5401C6.27052 33.9474 -13.1607 50.0363 14.3805 67.3104C27.0125 75.2401 42.6207 84.0218 41.4632 92.2956Z" fill="#5D97C9"/>
<path d="M32.1734 55.6341C60.0258 37.0985 57.0878 34.3352 56.0391 32.6476L56.1212 32.5929C58.1526 34.4716 64.171 42.4834 41.3757 57.835C14.9649 75.6388 15.0413 81.821 28.8146 94.3492L29.9069 96.3642C24.0197 93.2022 -2.32021 78.6425 32.2007 55.6669" fill="#56B146"/>
<path d="M14.4188 109.777C11.9119 109.777 10.088 111.885 10.088 114.572C10.088 117.259 11.9119 119.367 14.4188 119.367C16.9255 119.367 18.7277 117.265 18.7277 114.572C18.7277 111.88 16.9091 109.772 14.4188 109.772V109.777ZM14.4188 121.901C14.1746 121.908 13.9308 121.902 13.6872 121.885C13.4436 121.867 13.2016 121.837 12.961 121.795C12.7204 121.754 12.4824 121.7 12.2473 121.634C12.012 121.568 11.7807 121.491 11.5532 121.402C11.3258 121.313 11.1032 121.213 10.8858 121.102C10.6682 120.991 10.4568 120.87 10.2515 120.738C10.0461 120.605 9.8479 120.463 9.65678 120.311C9.46567 120.159 9.2825 119.998 9.10755 119.828C8.93251 119.657 8.76647 119.479 8.60924 119.292C8.4521 119.105 8.30468 118.911 8.16686 118.709C8.02909 118.507 7.90177 118.299 7.78486 118.085C7.66786 117.871 7.56196 117.651 7.46688 117.426C7.37194 117.201 7.28837 116.972 7.21635 116.738C7.1442 116.505 7.08401 116.269 7.03552 116.029C6.98706 115.79 6.95062 115.549 6.92628 115.306C6.90189 115.063 6.88975 114.819 6.88975 114.575C6.88975 114.331 6.90189 114.087 6.92628 113.844C6.95058 113.601 6.98702 113.36 7.03552 113.121C7.08401 112.881 7.1442 112.645 7.21635 112.412C7.28837 112.178 7.37194 111.949 7.46688 111.724C7.56196 111.499 7.66786 111.28 7.78486 111.065C7.90177 110.851 8.02913 110.643 8.16686 110.441C8.30468 110.24 8.45205 110.045 8.60924 109.858C8.76647 109.671 8.93251 109.493 9.10755 109.322C9.2825 109.152 9.46571 108.991 9.65678 108.839C9.84794 108.687 10.0461 108.545 10.2515 108.413C10.4568 108.28 10.6683 108.159 10.8858 108.048C11.1033 107.937 11.3258 107.837 11.5532 107.748C11.7807 107.659 12.012 107.582 12.2473 107.516C12.4824 107.451 12.7204 107.397 12.961 107.355C13.2016 107.313 13.4436 107.283 13.6872 107.265C13.9308 107.247 14.1746 107.242 14.4188 107.249C14.6629 107.242 14.9067 107.248 15.1503 107.265C15.3939 107.283 15.6359 107.313 15.8765 107.355C16.1171 107.397 16.355 107.451 16.5902 107.516C16.8254 107.582 17.0568 107.659 17.2843 107.748C17.5117 107.837 17.7343 107.937 17.9517 108.048C18.1693 108.159 18.3807 108.281 18.586 108.413C18.7914 108.545 18.9896 108.687 19.1808 108.839C19.3719 108.991 19.5549 109.152 19.7299 109.322C19.905 109.493 20.0711 109.671 20.2283 109.858C20.3854 110.045 20.5328 110.24 20.6707 110.441C20.8084 110.643 20.9357 110.851 21.0527 111.065C21.1697 111.28 21.2756 111.499 21.3706 111.724C21.4656 111.949 21.5491 112.178 21.6212 112.412C21.6933 112.645 21.7535 112.881 21.802 113.121C21.8505 113.36 21.8869 113.601 21.9112 113.844C21.9356 114.087 21.9478 114.331 21.9478 114.575C21.9478 114.819 21.9356 115.063 21.9112 115.306C21.887 115.549 21.8505 115.79 21.802 116.029C21.7535 116.269 21.6933 116.505 21.6212 116.738C21.5491 116.972 21.4656 117.201 21.3706 117.426C21.2756 117.651 21.1697 117.871 21.0527 118.085C20.9357 118.299 20.8084 118.507 20.6707 118.709C20.5328 118.911 20.3855 119.105 20.2283 119.292C20.0711 119.479 19.905 119.658 19.7299 119.828C19.5549 119.998 19.3718 120.159 19.1808 120.311C18.9895 120.463 18.7914 120.605 18.586 120.738C18.3807 120.87 18.1692 120.991 17.9517 121.102C17.7343 121.213 17.5117 121.313 17.2843 121.402C17.0568 121.491 16.8254 121.568 16.5902 121.634C16.355 121.7 16.1171 121.754 15.8765 121.795C15.6359 121.837 15.3939 121.867 15.1503 121.885C14.9067 121.902 14.6629 121.908 14.4188 121.901Z" fill="#585E60"/>
<path d="M33.2437 121.656V115.588H27.2364V121.656H24.3419V107.495H27.2308V113.136H33.2383V107.495H36.1329V121.656H33.2437Z" fill="#585E60"/>
<path d="M44.412 109.717C43.4402 109.717 42.5716 110.203 42.5716 111.137C42.5716 112.229 43.9096 112.53 45.0019 112.917C47.0007 113.606 49.4092 114.556 49.4092 117.51C49.4092 120.585 46.5202 121.879 44.0517 121.879C43.542 121.883 43.0375 121.832 42.5382 121.73C42.0391 121.627 41.5559 121.474 41.0889 121.269C40.6218 121.065 40.1809 120.815 39.7664 120.518C39.3519 120.222 38.9727 119.885 38.6287 119.509L40.551 117.625C41.7033 118.717 42.5935 119.411 44.0681 119.411C45.204 119.411 46.3182 118.865 46.3182 117.609C46.3182 116.353 45.0183 115.927 43.5875 115.424C41.7472 114.736 39.6827 113.928 39.6827 111.214C39.6827 108.499 41.9709 107.249 44.3193 107.249C45.1752 107.248 46.0059 107.392 46.8113 107.681C47.617 107.97 48.3501 108.387 49.0105 108.931L47.3722 110.995C46.968 110.617 46.5118 110.317 46.0036 110.098C45.4953 109.878 44.9647 109.752 44.412 109.717Z" fill="#585E60"/>
<path d="M63.2262 114.982C63.2262 119.433 61.5278 121.901 57.4808 121.901C53.516 121.901 51.8174 119.433 51.8174 114.982V107.495H54.7066V115.364C54.7066 118.095 55.7989 119.367 57.5192 119.367C59.2394 119.367 60.3317 118.073 60.3317 115.364V107.495H63.2262V114.982Z" fill="#585E60"/>
</svg>
