<svg width="316" height="62" viewBox="0 0 316 62" fill="none" xmlns="http://www.w3.org/2000/svg">
<g clip-path="url(#clip0_108_86)">
<path d="M48.7895 19.6184C48.7895 19.6184 43.7763 19.6184 43.6003 19.6184C43.6003 19.4459 43.6003 12.6184 43.6003 12.6184C43.6003 5.6569 37.8453 0 30.7643 0C23.6833 0 17.9278 5.6569 17.9278 12.6184C17.9278 12.6184 17.9278 19.4263 17.9278 19.6184C17.7528 19.6184 12.836 19.6184 12.836 19.6184C5.75448 19.6184 0 25.2754 0 32.2363C0 39.1787 5.75501 44.8361 12.836 44.8361C12.836 44.8361 17.7523 44.8361 17.9278 44.8361C17.9278 45.0086 17.9278 49.4002 17.9278 49.4002C17.9278 56.3621 23.6828 62 30.7643 62C37.8458 62 43.6003 56.3431 43.6003 49.4002C43.6003 49.4002 43.6003 45.0086 43.6003 44.8361C43.7758 44.8361 48.7895 44.8361 48.7895 44.8361C55.871 44.8361 61.626 39.1802 61.626 32.2363C61.626 25.2754 55.8705 19.6184 48.7895 19.6184ZM22.8241 12.6184C22.8241 8.30356 26.3939 4.81331 30.7638 4.81331C35.2116 4.81331 38.8208 8.24589 38.8208 12.5035C38.8208 16.7992 35.2116 20.3085 30.7638 20.3085H29.8076V16.4923H30.7638C33.0265 16.4923 34.9193 14.6707 34.9193 12.5035C34.9193 10.375 33.0464 8.63009 30.7638 8.63009C28.5204 8.63009 26.7057 10.4326 26.7057 12.6189V27.5579L22.8236 30.665L22.8241 12.6184ZM38.7233 49.4002C38.7233 53.7155 35.153 57.2243 30.7638 57.2243C26.3745 57.2243 22.8241 53.7155 22.8241 49.4002V44.5292H26.7062V49.4002C26.7062 51.606 28.5204 53.3889 30.7643 53.3889C33.0081 53.3889 34.8219 51.5864 34.8219 49.4002V36.8972L38.7039 33.8287V49.4002H38.7233ZM48.7895 40.0418H43.5222V36.2065H48.7895C51.0333 36.2065 52.8471 34.4225 52.8471 32.2177C52.8471 30.0135 51.0333 28.2284 48.7895 28.2284H41.0835C40.0498 28.2284 39.1136 28.5359 37.8453 29.2641C37.6111 29.398 36.6943 30.0501 36.3626 30.3189C28.6179 36.4357 27.4281 37.3751 27.3307 37.4534C27.0184 37.6831 26.2383 38.2779 25.7113 38.5653C24.2486 39.447 22.7073 39.9656 21.2246 40.0609H12.8559C8.46618 40.0609 4.89634 36.5516 4.89634 32.2559C4.89634 27.9411 8.46618 24.4312 12.8559 24.4312H18.1226V28.248H12.8559C10.6121 28.248 8.7978 30.0315 8.7978 32.2363C8.7978 34.4225 10.6121 36.2256 12.8559 36.2256C12.8559 36.2256 20.9318 36.2256 20.9124 36.2256C21.8292 36.1684 22.7659 35.8419 23.8583 35.1904L24.9113 34.4611C24.9113 34.4611 33.905 27.3267 33.9244 27.3462C33.9443 27.3277 35.3295 26.2534 36.0703 25.8697C37.7677 24.8917 39.3672 24.4508 41.084 24.4508H48.7895C53.1787 24.4508 56.749 27.9606 56.749 32.2754C56.7485 36.5325 53.1787 40.0418 48.7895 40.0418Z" fill="#5F810E"/>
<path d="M106.202 21.574C101.247 21.574 97.5014 25.6776 97.5014 31.1244C97.5014 36.5892 101.247 40.7124 106.202 40.7124C111.137 40.7124 114.863 36.5892 114.863 31.1244C114.863 25.6781 111.137 21.574 106.202 21.574ZM106.202 39.2369C102.554 39.2369 101.149 36.9544 101.149 31.1059C101.149 25.2563 102.573 22.9743 106.202 22.9743C109.81 22.9743 111.215 25.2563 111.215 31.1059C111.215 36.9544 109.81 39.2369 106.202 39.2369Z" fill="black"/>
<path d="M284.818 38.6225L284.779 38.5653C284.722 38.4891 284.643 38.4304 284.546 38.4304C284.468 38.4304 284.35 38.4494 284.293 38.5272C283.922 38.93 283.59 39.1396 283.298 39.1396C282.693 39.1396 282.518 38.776 282.518 37.5106V27.6336C282.518 23.6067 280.431 21.574 276.295 21.574C273.582 21.574 270.441 23.2998 270.441 25.5241C270.441 26.5985 271.241 27.4034 272.314 27.4034C273.349 27.4034 274.187 26.5598 274.187 25.5241C274.187 24.8726 273.895 24.335 273.368 24.01C273.368 24.01 273.368 24.01 273.349 24.01L273.368 23.9904C273.563 23.7412 274.324 22.9161 276.314 22.9161C278.343 22.9161 279.318 23.9137 279.318 25.9464V29.705C274.324 29.705 268.959 31.6997 268.959 36.0716C268.959 38.6606 270.833 40.5404 273.388 40.5404C275.378 40.5404 277.387 39.6386 279.378 37.8361L279.397 37.817V37.8361C279.67 39.3121 280.997 40.424 282.498 40.424C283.552 40.424 284.527 39.754 284.996 39.3698C285.094 39.2735 285.132 39.1215 285.055 38.9866L284.818 38.6225ZM279.297 36.3987C277.073 38.3547 275.688 38.5653 274.83 38.5653C273.485 38.5653 272.333 37.1454 272.333 35.4588C272.333 32.5252 274.732 30.9709 279.278 30.9709V36.3987H279.297Z" fill="black"/>
<path d="M175.709 38.9104L175.494 38.5653C175.436 38.4891 175.358 38.4304 175.26 38.4304C175.162 38.4304 175.065 38.4494 175.008 38.5272C174.637 38.93 174.305 39.1396 174.012 39.1396C173.408 39.1396 173.233 38.776 173.233 37.5106V27.6336C173.233 23.6067 171.146 21.574 167.009 21.574C164.298 21.574 161.157 23.2998 161.157 25.5241C161.157 26.5985 161.956 27.4034 163.03 27.4034C164.064 27.4034 164.902 26.5598 164.902 25.5241C164.902 24.8726 164.609 24.335 164.083 24.01H164.064V23.9904C164.258 23.7412 165.02 22.9161 167.009 22.9161C169.039 22.9161 170.014 23.9137 170.014 25.9464V29.705H169.994C165 29.705 159.636 31.6997 159.636 36.0716C159.636 38.6606 161.508 40.5404 164.064 40.5404C166.053 40.5404 168.064 39.6386 170.054 37.8361L170.072 37.817V37.8361C170.346 39.3121 171.673 40.424 173.155 40.424C174.228 40.424 175.184 39.754 175.653 39.3698C175.77 39.2735 175.789 39.1215 175.711 38.9866V38.9104H175.709ZM170.013 36.3987C167.79 38.3547 166.403 38.5653 165.545 38.5653C164.199 38.5653 163.048 37.1454 163.048 35.4588C163.048 32.5252 165.448 30.9709 169.993 30.9709H170.013V36.3987Z" fill="black"/>
<path d="M244.612 23.377L242.408 22.7054C239.404 21.8804 237.687 19.963 237.687 17.4703C237.687 14.306 239.968 12.1002 243.246 12.1002C247.928 12.1002 249.586 15.3222 249.586 18.3329C249.586 18.8124 249.8 19.0426 250.269 19.0426C250.718 19.0426 250.953 18.8119 250.953 18.3329V11.0074C250.953 10.6623 250.854 10.3358 250.231 10.3358C249.665 10.3358 249.607 10.7385 249.607 11.0455C249.607 11.544 249.217 12.0431 248.827 12.3114H248.808L248.787 12.2923C248.086 11.5445 246.408 10.2786 243.111 10.2786C239.092 10.2786 234.782 13.2894 234.782 18.1604C234.782 22.5329 237.474 25.6199 242.564 27.116C242.604 27.1351 242.623 27.135 242.642 27.135C242.623 27.135 242.604 27.135 242.564 27.135L244.341 27.6336C246.369 28.1903 249.764 29.6473 249.764 33.3296C249.764 36.8585 246.604 38.7574 243.658 38.7574C239.231 38.7574 236.265 35.8419 236.265 31.4895C236.265 31.1249 236.207 30.7793 235.582 30.7793C235.134 30.7793 234.899 31.028 234.899 31.4895V39.8693C234.899 40.0995 234.899 40.58 235.621 40.58C236.05 40.58 236.246 40.3307 236.246 39.8317C236.246 39.1591 236.616 38.4896 237.123 38.2403C237.942 38.9881 240.206 40.7139 243.443 40.7139C248.945 40.7139 252.924 37.1088 252.924 32.1219C252.962 27.8643 250.152 24.9298 244.612 23.377ZM242.934 26.9249C242.934 26.9249 242.934 26.944 242.934 26.9249V26.9249Z" fill="black"/>
<path d="M315.329 34.6919C314.919 34.6919 314.724 35.1132 314.606 35.401C313.71 37.8947 311.798 39.1983 309.086 39.1983C305.575 39.1983 303.799 36.5907 303.799 31.4509C303.799 31.4509 303.838 30.3194 303.838 29.7642C303.974 29.7642 315.563 29.7642 315.563 29.7642C315.718 29.7642 315.855 29.6483 315.855 29.4949V29.3991C315.875 29.2265 315.875 29.0731 315.875 28.9005C315.875 26.9636 315.192 25.161 313.983 23.8374C312.618 22.3609 310.745 21.5745 308.54 21.5745C304.404 21.5745 300.113 25.1415 300.113 31.1249C300.113 37.0512 304.462 40.7129 308.482 40.7129C310.491 40.7129 314.1 40.1382 315.817 36.2065C315.916 35.9954 315.992 35.5937 315.992 35.3629C316.051 35.0369 315.797 34.6919 315.329 34.6919ZM304.072 28.1903C304.658 24.7768 306.376 22.9743 308.989 22.9743C312.949 22.9743 313.105 28.1327 313.105 28.1903H304.072C304.072 28.2094 304.072 28.1903 304.072 28.1903Z" fill="black"/>
<path d="M155.947 38.5272L153.372 38.5653V11.6403C153.372 11.1222 153.021 10.8344 152.708 10.8344C152.689 10.8344 151.753 10.9116 151.753 10.9116L150.114 11.0264C150.134 11.0264 147.637 10.9878 147.637 10.9878H147.403C147.325 10.9878 147.246 11.0265 147.188 11.0836C147.13 11.1413 147.09 11.218 147.09 11.2948V12.2342C147.09 12.3109 147.13 12.4067 147.188 12.4453C147.246 12.503 147.325 12.5411 147.422 12.5221L147.656 12.5025C148.027 12.4639 148.651 12.4067 150.153 12.4067V38.5833L147.637 38.5457H147.403C147.325 38.5457 147.246 38.5833 147.188 38.6425C147.13 38.6987 147.09 38.7754 147.09 38.8527V39.792C147.09 39.8672 147.13 39.945 147.188 40.0022C147.246 40.0593 147.344 40.0794 147.422 40.0794H147.578C148.046 40.0212 148.905 39.944 151.694 39.944H151.869C154.171 39.944 155.342 40.0012 155.908 40.0593C155.986 40.0593 156.064 40.0403 156.141 39.9836C156.2 39.926 156.239 39.8492 156.239 39.7539V38.8326C156.239 38.7574 156.219 38.6796 156.161 38.6225C156.103 38.5653 156.025 38.5272 155.947 38.5272Z" fill="black"/>
<path d="M128.285 21.574C125.885 21.574 124.013 22.878 123.155 25.16L123.135 25.2368V22.9156C123.135 22.4366 122.784 22.1106 122.451 22.1106C122.432 22.1106 121.457 22.1868 121.457 22.1868L119.877 22.3022C119.896 22.3022 117.536 22.2641 117.536 22.2641C117.458 22.2641 117.38 22.3022 117.321 22.3403C117.262 22.398 117.243 22.4747 117.243 22.5515V23.4528C117.243 23.5295 117.282 23.6253 117.34 23.683C117.399 23.7406 117.477 23.7597 117.575 23.7597C117.965 23.7216 118.589 23.6634 119.916 23.6634H119.935V38.5643L117.555 38.5262C117.477 38.5262 117.4 38.5643 117.34 38.623C117.282 38.6802 117.263 38.7574 117.263 38.8331V39.7344C117.263 39.8111 117.302 39.8874 117.36 39.945C117.418 40.0022 117.497 40.0213 117.594 40.0213C118.102 39.9837 119.292 39.9069 121.457 39.9069H121.633C123.798 39.9069 124.91 39.9636 125.456 40.0213C125.534 40.0408 125.632 40.0022 125.69 39.945C125.748 39.8874 125.788 39.8111 125.788 39.7344V38.8331C125.788 38.7574 125.748 38.6802 125.69 38.623C125.632 38.5653 125.554 38.5262 125.475 38.5262L123.173 38.5643V30.7974C123.173 27.4415 124.129 24.8335 125.807 23.6253C126.587 23.0691 127.446 22.8965 128.207 23.1268H128.225L128.207 23.1463C127.894 23.4528 127.718 23.7787 127.718 24.4503C127.718 25.5818 128.558 26.445 129.669 26.445C130.84 26.445 131.698 25.486 131.698 24.1434C131.66 22.6287 130.255 21.574 128.285 21.574Z" fill="black"/>
<path d="M87.3766 11.0264L83.8843 11.0836L82.1486 11.1222C79.5349 11.1222 78.2665 11.0645 77.662 11.0264C77.5839 11.0264 77.5058 11.0455 77.4283 11.1027C77.3691 11.1603 77.3303 11.2371 77.3303 11.3138V12.1389C77.3303 12.2156 77.3691 12.2923 77.4283 12.3495C77.4864 12.4072 77.5645 12.4463 77.6426 12.4262L80.6078 12.3876C80.6078 12.3876 80.6078 35.6498 80.6078 38.5648L78.3257 38.5266C78.2471 38.5266 78.1691 38.5648 78.1109 38.6024C78.0523 38.6605 78.0334 38.7363 78.0334 38.8135V39.7148C78.0334 39.7915 78.0727 39.8677 78.1308 39.9249C78.1895 39.9831 78.2676 40.0017 78.365 40.0017C78.8522 39.9641 80.0032 39.8853 82.169 39.8853H82.7149C85.0557 39.8853 86.148 39.9435 86.6751 40.0017C86.7531 40.0202 86.8506 39.9831 86.9087 39.9249C86.9674 39.8677 87.0062 39.7915 87.0062 39.7148V38.7945C87.0062 38.7182 86.9868 38.6415 86.9286 38.5833C86.87 38.5267 86.7914 38.5076 86.7138 38.5076H86.6358C86.6358 38.5076 84.9777 38.5267 84.2751 38.5457C84.2751 38.5457 84.2751 29.6293 84.2751 27.8828H87.4159C93.8142 27.8828 97.6381 24.7186 97.6381 19.4067C97.5989 14.1716 93.7755 11.0264 87.3766 11.0264ZM87.3766 26.311H84.2552V12.6565H87.396C92.0387 12.6565 93.5994 14.3627 93.5994 19.4263C93.58 24.5657 92.0199 26.311 87.3766 26.311Z" fill="black"/>
<path d="M144.262 22.2456C144.262 22.2456 140.809 22.2842 139.756 22.2842V22.2646V17.5852C139.756 16.8951 139.717 16.3002 139.171 16.3002C138.585 16.3002 138.448 16.7416 137.941 19.158C137.941 19.158 137.941 19.158 137.941 19.1771C137.493 21.5745 136.712 22.0159 134.605 22.1879C134.449 22.2074 134.332 22.3223 134.332 22.4758V23.3966C134.332 23.5496 134.469 23.6845 134.625 23.6845H135.249C135.249 23.6845 136.088 23.7036 136.556 23.7036V23.7231C136.556 23.7036 136.556 36.4569 136.556 36.4569C136.556 38.8537 137.961 40.2731 140.301 40.2731C142.604 40.2731 143.521 39.3909 143.813 39.0258C143.872 38.95 143.891 38.8156 143.852 38.7188L143.579 38.1621C143.54 38.0668 143.462 38.0086 143.365 37.9901C143.267 37.9715 143.17 38.0086 143.111 38.0668C142.741 38.4299 141.98 39.0242 141.142 39.0242C140.536 39.0242 139.756 38.8331 139.756 37.2036V23.6835L143.482 23.7025L144.262 23.7221C144.593 23.7221 144.945 23.4342 144.945 22.9738C144.945 22.5335 144.593 22.2456 144.262 22.2456Z" fill="black"/>
<path d="M265.681 22.2456C265.681 22.2456 262.228 22.2842 261.175 22.2842V22.2646V17.5852C261.175 16.8951 261.135 16.3002 260.589 16.3002C259.926 16.3002 259.809 16.6453 259.359 18.832C258.912 21.2099 258.13 21.9767 256.024 22.1683C255.868 22.1874 255.751 22.3218 255.751 22.4562V23.3776C255.751 23.4538 255.79 23.5305 255.829 23.5882C255.886 23.6459 255.965 23.684 256.044 23.684L257.975 23.6459V36.4563C257.975 38.8532 259.38 40.2726 261.72 40.2726C264.023 40.2726 264.939 39.3904 265.231 39.0252C265.309 38.93 265.309 38.8151 265.269 38.7188L265.231 38.6621L264.998 38.1816C264.958 38.0864 264.88 38.0287 264.783 38.0086C264.686 37.9901 264.587 38.0287 264.53 38.0864C264.159 38.4495 263.399 39.0448 262.559 39.0448C261.974 39.0448 261.174 38.8527 261.174 37.2222V23.6448L264.899 23.7216C264.88 23.7216 265.66 23.7406 265.66 23.7406C265.992 23.7406 266.342 23.4527 266.342 22.9923C266.364 22.5334 266.012 22.2456 265.681 22.2456Z" fill="black"/>
<path d="M297.167 39.0453C297.244 38.949 297.244 38.8341 297.186 38.7368L297.108 38.5839L296.913 38.1816C296.874 38.1049 296.796 38.0472 296.699 38.0287C296.602 38.0086 296.504 38.0472 296.446 38.1044C296.075 38.4685 295.334 39.0628 294.475 39.0628C293.89 39.0628 293.09 38.8712 293.09 37.2412V23.6634L296.815 23.7401L297.595 23.7592C297.946 23.7592 298.279 23.4713 298.279 23.0114C298.279 22.5319 297.927 22.263 297.595 22.263C297.595 22.263 294.142 22.3012 293.089 22.3012V22.2826V17.6032C293.089 16.9131 293.05 16.3182 292.503 16.3182C291.841 16.3182 291.723 16.6633 291.274 18.8495C290.826 21.2279 290.045 21.9947 287.938 22.1863C287.782 22.2059 287.685 22.3398 287.685 22.4742V23.395C287.685 23.4718 287.705 23.548 287.762 23.6062C287.821 23.6634 287.899 23.702 287.977 23.702L289.908 23.6639V36.4749C289.908 38.8717 291.314 40.2911 293.654 40.2911C295.958 40.3102 296.874 39.4285 297.167 39.0453Z" fill="black"/>
<path d="M199.451 38.5462L196.993 38.5838V28.248C196.993 25.2177 196.018 21.5935 191.317 21.5935C188.391 21.5935 185.64 24.182 184.684 26.6757L184.665 26.7524V22.9166C184.665 22.4376 184.313 22.1116 183.981 22.1116C183.962 22.1116 182.967 22.1878 182.967 22.1878L181.386 22.3032C181.405 22.3032 179.044 22.2651 179.044 22.2651C179.044 22.2651 178.986 22.2651 178.967 22.2651C178.889 22.2651 178.811 22.3032 178.752 22.3413C178.694 22.399 178.655 22.4757 178.655 22.5525V23.4924C178.655 23.5691 178.693 23.6458 178.752 23.703C178.811 23.7607 178.889 23.7797 178.986 23.7797H179.063C179.063 23.7797 180.722 23.7416 181.426 23.7226C181.426 23.7226 181.426 36.4558 181.426 38.5467L179.044 38.5092C179.044 38.5092 178.986 38.5092 178.967 38.5092C178.889 38.5092 178.811 38.5467 178.752 38.5843C178.694 38.6425 178.655 38.7193 178.655 38.7955V39.7349C178.655 39.8879 178.791 40.0228 178.947 40.0228C178.947 40.0228 178.967 40.0228 178.986 40.0228C179.396 39.9666 180.098 39.8878 182.908 39.8878H183.082C185.677 39.8878 186.574 39.9461 187.004 39.9847C187.081 40.0032 187.179 39.9656 187.238 39.9085C187.295 39.8513 187.335 39.7735 187.335 39.6973V38.8341C187.335 38.7584 187.297 38.6812 187.238 38.624C187.179 38.5663 187.1 38.5272 187.023 38.5272L184.623 38.5653V31.7954C184.623 27.4039 187.705 23.2616 190.964 23.2616C192.973 23.2616 193.715 24.2016 193.715 26.6942V38.5653L191.237 38.5272C191.16 38.5272 191.081 38.5462 191.023 38.6034C190.965 38.6606 190.924 38.7368 190.924 38.8146V39.7339C190.924 39.8111 190.964 39.8868 191.023 39.945C191.081 40.0022 191.16 40.0212 191.256 40.0212C191.822 39.9836 192.778 39.9064 195.217 39.9064H195.413C197.364 39.9064 198.651 39.9445 199.393 39.9826C199.47 39.9826 199.548 39.9636 199.626 39.9064C199.684 39.8492 199.724 39.7715 199.724 39.6952V38.8321C199.724 38.7564 199.685 38.6791 199.626 38.6219C199.607 38.5653 199.529 38.5272 199.451 38.5462Z" fill="black"/>
<path d="M221.397 39.7555V38.8151C221.397 38.7378 221.358 38.643 221.299 38.5849C221.241 38.5282 221.142 38.5097 221.065 38.5282C220.695 38.5663 220.109 38.6626 218.588 38.6626H218.567V11.6419C218.567 11.1624 218.216 10.8359 217.885 10.8359C217.865 10.8359 216.93 10.9126 216.948 10.9126L215.31 11.028C215.329 11.028 213.124 10.9894 213.124 10.9894C213.047 10.9894 212.969 11.0089 212.91 11.0661C212.852 11.1238 212.832 11.2 212.832 11.2772V12.1595C212.832 12.2357 212.871 12.332 212.931 12.3706C212.989 12.4278 213.087 12.4469 213.164 12.4469C213.516 12.4087 214.119 12.3706 215.33 12.3706H215.349V24.836L215.33 24.7974C214.119 22.7837 212.11 21.5564 209.926 21.5564C205.303 21.5564 202.182 25.3923 202.182 31.1074C202.182 36.7447 205.361 40.6959 209.926 40.6959C212.092 40.6959 214.102 39.4681 215.33 37.4163L215.349 37.3602V39.3538C215.349 39.8333 215.701 40.1582 216.033 40.1582C216.052 40.1582 216.968 40.1011 216.968 40.1011L218.608 40.0048C218.589 40.0048 221.104 40.0624 221.104 40.0624C221.183 40.0624 221.261 40.0238 221.319 39.9661C221.378 39.9265 221.397 39.8502 221.397 39.7555ZM209.966 39.1982C207.098 39.1982 205.829 36.705 205.829 31.1058C205.829 25.5055 207.098 23.0319 209.966 23.0319C213.243 23.0319 215.349 26.1967 215.349 31.1058C215.33 36.034 213.223 39.1982 209.966 39.1982Z" fill="black"/>
<path d="M208.463 53.9071C208.463 55.326 207.644 56.1706 206.299 56.1706C204.952 56.1706 204.132 55.326 204.132 53.9071V47.9623H202.825V53.9071C202.825 56.4389 204.621 57.3587 206.278 57.3587C207.956 57.3587 209.751 56.4574 209.751 53.9071V47.9623H208.444V53.9071H208.463Z" fill="black"/>
<path d="M222.685 55.2111C222.371 54.6739 218.413 47.9623 218.413 47.9623H216.968V57.2052H218.276C218.276 57.2052 218.276 50.7047 218.276 50.1104C218.589 50.628 222.471 57.2052 222.471 57.2052H223.992V47.9623H222.685C222.685 47.9623 222.685 54.6163 222.685 55.2111Z" fill="black"/>
<path d="M232.536 47.9623H231.229V57.2052H232.536V47.9623Z" fill="black"/>
<path d="M242.759 55.518C242.603 55.0777 240.008 47.9432 240.008 47.9432H238.622L242.115 57.1862H243.363L246.933 47.9432H245.626C245.607 47.9622 243.227 54.2913 242.759 55.518Z" fill="black"/>
<path d="M254.093 53.0248C254.269 53.0248 257.429 53.0248 257.429 53.0248V51.8738C257.429 51.8738 254.269 51.8738 254.093 51.8738C254.093 51.7018 254.093 49.2853 254.093 49.1324C254.269 49.1324 257.604 49.1324 257.604 49.1324V47.9628H252.787V57.2057H257.76V56.0361C257.76 56.0361 254.268 56.0361 254.093 56.0361C254.093 55.8636 254.093 53.1979 254.093 53.0248Z" fill="black"/>
<path d="M269.094 53.4858C269.094 53.4657 269.055 53.4095 269.055 53.4095C268.88 53.0449 268.705 52.7369 268.353 52.5273C269.328 52.2008 269.953 51.4149 269.953 50.4359C269.953 48.8064 268.959 47.9432 267.105 47.9432H264.587V57.1861H265.894C265.894 57.1861 265.894 53.1979 265.894 53.0248C266.031 53.0248 266.421 53.0248 266.421 53.0248C267.182 53.0248 267.494 53.0248 267.982 54.0796C267.982 54.0796 268.08 54.3093 269.289 57.0723L269.346 57.2062H270.791L270.653 56.9178L269.094 53.4858ZM266.617 51.8738C266.617 51.8738 266.032 51.8738 265.876 51.8738C265.876 51.7018 265.876 49.2853 265.876 49.1324C266.013 49.1324 266.579 49.1324 266.579 49.1324C267.828 49.1324 268.646 49.2287 268.646 50.4554C268.665 51.7589 267.105 51.8738 266.617 51.8738Z" fill="black"/>
<path d="M290.007 47.9623H288.7V57.2052H290.007V47.9623Z" fill="black"/>
<path d="M279.57 51.8362C278.673 51.3752 277.912 50.973 277.912 50.3019C277.912 49.0747 279.238 48.9789 279.647 48.9789C280.272 48.9789 280.837 49.0947 281.169 49.2863L281.422 49.4213L281.617 48.347L281.656 48.1749L281.5 48.1173C280.719 47.8288 279.9 47.8103 279.666 47.8103C277.871 47.8103 276.622 48.846 276.622 50.3226C276.622 51.6842 277.891 52.3733 279.003 52.9692C279.9 53.4487 280.738 53.9086 280.738 54.5992C280.738 55.5968 280.074 56.1906 278.923 56.1906C278.182 56.1906 277.578 56.0377 277.051 55.7117L276.758 55.5381L276.621 56.9003L276.758 56.958C277.187 57.1305 277.89 57.3602 278.885 57.3602C280.466 57.3602 282.045 56.5352 282.045 54.6569C282.029 53.1211 280.721 52.4305 279.57 51.8362Z" fill="black"/>
<path d="M295.645 49.1324C295.645 49.1324 298.259 49.1324 298.415 49.1324C298.415 49.3049 298.415 57.2062 298.415 57.2062H299.722C299.722 57.2062 299.722 49.3049 299.722 49.1324C299.898 49.1324 302.492 49.1324 302.492 49.1324V47.9628H295.645V49.1324Z" fill="black"/>
<path d="M310.862 52.0844C310.725 51.8552 308.267 47.9998 308.267 47.9998L308.189 47.9432H306.727L310.257 53.3127L310.238 57.1862H311.545V53.2731C311.563 53.2731 314.841 48.2682 314.841 48.2682L315.056 47.9612H313.592C313.574 47.9622 311.018 51.8738 310.862 52.0844Z" fill="black"/>
</g>
<defs>
<clipPath id="clip0_108_86">
<rect width="316" height="62" fill="white"/>
</clipPath>
</defs>
</svg>
